<svg xmlns="http://www.w3.org/2000/svg" viewBox="0 0 1067 10767"><defs><style>.cls-1{fill:#27275B;}</style></defs><title>tennisball</title><g id="Layer_3" data-name="Layer 3"><path class="cls-1" d="M519.25,296.25a49.78,49.78,0,0,0-3.37,5c-1.28,2-1.37,2.31-2.13,3.5a34.2,34.2,0,0,1-5.25,6.63,21.21,21.21,0,0,1-7.12,4.87,19.35,19.35,0,0,1-7.76,1.37,21.61,21.61,0,0,1-10.74-3.5,23.24,23.24,0,0,1-7.26-6.12,22,22,0,0,1-3.62-7.12,22.47,22.47,0,0,1-.75-7.76,22.9,22.9,0,0,1,1.63-7.87,21.29,21.29,0,0,1,4.24-6.63,19.66,19.66,0,0,1,5.26-3.87,26.43,26.43,0,0,1,7.12-2.13c2-.41,3.39-.6,6.25-1,5.35-.73,5.75-.56,7.75-1.12a14.58,14.58,0,0,0,6-2.75,10.85,10.85,0,0,0,1.68-1.8l-.12-.08a34.06,34.06,0,0,0-16.56-4.37A33.5,33.5,0,1,0,528,295a31.61,31.61,0,0,0-.3-4.25,9.35,9.35,0,0,0-3.2.75C522.32,292.45,521,294.06,519.25,296.25Z" transform="translate(-461 -261.5)"/><path class="cls-1" d="M515.33,268.86a16.12,16.12,0,0,1-6.08,4.76,24.69,24.69,0,0,1-6.75,2.13c-2.12.44-2.26.28-6.75.87a56.89,56.89,0,0,0-7.37,1.26,18.34,18.34,0,0,0-6.13,2.37,14.43,14.43,0,0,0-4.63,5c-1.35,2.53-1.46,4.75-1.62,7.87a18.4,18.4,0,0,0,.75,7.76,17.37,17.37,0,0,0,3.37,5.5,22.83,22.83,0,0,0,5.88,4.87,17.49,17.49,0,0,0,6.38,2.5,15.22,15.22,0,0,0,6.74-.37c4.68-1.43,7.29-5.18,10.13-9.26,2.27-3.25,2.25-4.22,5.5-8.74a21.23,21.23,0,0,1,4.63-5.13,15.57,15.57,0,0,1,6.37-3,8.9,8.9,0,0,1,1.23-.16A34.79,34.79,0,0,0,515.33,268.86Z" transform="translate(-461 -261.5)"/></g></svg>